<svg width="953" height="793" viewBox="0 0 953 793" fill="none" xmlns="http://www.w3.org/2000/svg">
<path d="M787.342 735.241L792.932 730.763V721.808L950 561.726C919.261 564.518 900.456 554.831 866.156 532.061C838.077 533.98 823.4 530.696 799.08 518.627M787.342 735.241C769.083 755.578 732.452 795.356 732.005 791.773C731.557 788.191 718.031 766.399 711.323 755.951L723.62 746.995L714.677 735.241M787.342 735.241C777.653 726.099 760.163 706.856 758.835 705.576C756.898 703.709 792.31 666.73 811.377 648.484C806.461 625.603 802.939 613.528 795.167 594.19C763.748 582.804 753.292 573.821 744.302 554.03M714.677 735.241L655.986 752.593L654.309 746.995L639.217 750.354V760.429L619.653 765.466L615.741 758.75L595.059 767.705L583.321 754.832L568.788 763.227L565.993 722.927L552.019 711.733M714.677 735.241L739.83 733.562L696.79 659.118M552.019 711.733L519.599 741.958C512.349 743.944 508.318 747.842 501.153 756.511L505.066 760.429L498.917 784.497L446.934 741.958L455.318 729.644L416.75 671.432M552.019 711.733L619.653 659.118M552.019 711.733L537.486 696.06C545.548 623.347 543.74 593.151 525.748 563.965L527.983 518.067M416.75 671.432L381.535 694.381L375.946 690.463M416.75 671.432L430.724 630.572C443.282 602.62 450.589 583.531 460.349 591.392C463.351 571.639 466.654 561.53 478.795 547.173L484.943 534.859L497.241 530.381L510.656 539.337L508.42 524.784L527.983 518.067M375.946 690.463C348.61 706.311 336.244 716.949 316.696 737.48L296.014 735.241L240.118 686.545L235.646 690.463L156.274 616.019L163.54 609.303L94.2288 547.733M375.946 690.463L320.608 640.088L333.465 624.415L312.224 605.385L333.465 602.026L342.408 594.75H359.177L364.766 591.392L326.198 557.452M94.2288 547.733L45.0401 495.678L2 439.146L39.4505 409.481L43.3632 414.518L74.1061 394.368L65.7217 382.614L85.2854 365.822L100.936 370.3L130.561 355.187V346.791L137.828 342.873L135.033 335.597L153.479 324.962H161.304L155.715 307.61M94.2288 547.733C98.7654 540.647 104.604 540.869 122.177 550.531L158.509 515.829C153.341 491.383 170.375 479.686 231.733 461.535M155.715 307.61L122.177 256.116L111.557 261.153L76.342 209.099L95.3467 196.785L90.875 188.389L98.1415 185.03L95.3467 179.993L100.936 176.075L98.1415 171.597L130.002 152.566L126.649 146.409L138.946 138.013L131.679 125.699L138.946 122.341L179.191 188.389L171.366 193.986L164.099 208.539C160.47 215.119 159.919 218.785 159.068 225.331H162.981C164.978 218.705 166.387 215.019 169.689 208.539L173.042 200.143L179.191 193.986L187.016 188.389C182.803 174.515 183.091 169.021 183.663 159.283C189.153 156.224 189.897 151.494 190.37 141.932C195.172 135.607 194.436 132.024 190.37 125.699C190.37 118.236 190.37 103.198 190.37 102.751C190.37 102.303 194.097 93.2353 195.96 88.7575L203.226 84.8394M155.715 307.61L179.191 292.498L216.642 350.15M203.226 84.8394L217.759 73.0852L223.908 51.2559L235.646 49.017V36.1433H242.354L259.123 49.017C270.612 49.1919 276.999 50.6267 288.189 57.9726L289.307 52.3753C294.852 56.1544 298.161 58.3977 304.958 63.0101H310.547L307.752 46.2184L288.189 11.5153L289.307 2C309.855 12.7039 352.255 23.3655 416.191 40.6211M203.226 84.8394C221.658 121.06 235.7 142.736 274.215 186.15C286.181 188.357 291.573 186.112 299.368 177.194C314.882 178.226 324.037 195.774 340.318 225.331M416.191 40.6211C450.261 48.0246 468.506 54.8258 498.917 73.6449C523.227 77.1795 535.383 81.5529 553.137 95.4742C552.005 100.359 552.935 102.071 556.491 103.87C584.161 106.546 588.979 112.366 578.29 126.259C590.426 138.25 594.341 144.671 584.439 154.245C570.896 157.567 565.328 157.787 559.285 154.245C548.374 170.043 542.206 179.284 532.455 186.15C532.517 191.706 533.518 194.997 537.486 201.262C531.096 205.174 528.097 207.888 523.512 213.576H514.009M416.191 40.6211C401.023 58.8665 396.331 84.0573 387.125 125.699L379.3 119.542L355.264 138.013L379.3 152.566L346.321 173.276C352.656 183.911 366.22 205.852 369.797 208.539M514.009 213.576L527.424 223.092M514.009 213.576L493.887 201.262C480.689 214 473.67 218.399 462.026 219.733L457.554 266.75M527.424 223.092C542.591 233.288 550.397 241.882 563.757 259.474M527.424 223.092L457.554 266.75M563.757 259.474C558.204 272.095 563.834 284.993 571.583 306.491M563.757 259.474L499.476 308.73M571.583 306.491C601.323 319.376 616.521 328.672 638.099 352.948L644.248 349.59C652.136 354.756 655.894 358.465 661.575 365.822C658.272 367.98 656.995 369.521 656.545 373.098H669.401C671.049 378.898 673.223 381.732 678.903 385.972C681.63 390.203 679.606 392.658 672.196 397.167C677.827 399.727 680.177 401.87 682.816 406.682C678.005 408.381 675.614 409.528 672.196 412.279M571.583 306.491L540.281 325.522L534.244 342.313M672.196 412.279C689.978 431.876 702.298 441.511 728.092 456.498M672.196 412.279C655.032 431.458 645.718 440.112 631.95 436.347L619.653 438.586M728.092 456.498C765.236 482.538 792.647 498.376 799.08 518.627M728.092 456.498L686.17 503.095M799.08 518.627L744.302 554.03M704.057 574.04L708.528 580.197L710.205 566.204L737.035 548.293L744.302 554.03M704.057 574.04L686.17 586.354L718.031 636.729L699.585 648.484L704.057 655.2L696.79 659.118M704.057 574.04L681.139 534.859M696.79 659.118L676.108 673.671L671.637 667.514L631.95 689.903L619.653 673.671V659.118M619.653 659.118L588.351 605.385L602.884 594.269M527.983 518.067L537.486 499.596M231.733 461.535L235.646 477.767L326.198 557.452M231.733 461.535L216.642 439.146V401.644L235.646 390.45L212.17 355.187L216.642 350.15M231.733 461.535H275.891L283.158 451.46L301.045 444.184L323.403 439.146L351.351 412.839M216.642 350.15C253.667 319.356 260.034 306.888 266.389 286.341M681.139 534.859L659.34 543.255V551.091L602.884 594.269M681.139 534.859L672.196 518.627M672.196 518.627L686.17 503.095M672.196 518.627L659.34 524.784L619.653 513.59L585.681 469.371M602.884 594.269L537.486 499.596M537.486 499.596L555.932 508.552L574.206 484.484M619.653 438.586L607.356 440.825L585.681 469.371M619.653 438.586C639.692 466.767 655.354 480.325 686.17 503.095M585.681 469.371L574.206 484.484M326.198 557.452L348.557 539.337L368.679 557.452L387.125 539.337L392.156 547.173L406.689 530.381L392.156 518.067L409.483 499.596L417.309 501.835L422.899 481.125M422.899 481.125L491.092 408.921M422.899 481.125L400.54 459.786M491.092 408.921L516.334 431.87M491.092 408.921L451.406 371.224M574.206 484.484L516.334 431.87M516.334 431.87V392.129L524.182 370.3M534.244 342.313L517.922 319.924C511.96 316.939 499.924 310.521 499.476 308.73M534.244 342.313L524.182 370.3M499.476 308.73C499.043 306.995 473.05 281.661 458.89 268.035M457.554 266.75C457.986 267.165 458.432 267.594 458.89 268.035M458.89 268.035C458.77 282.657 457.274 291.476 451.406 308.73M451.406 308.73L444.698 322.723M451.406 308.73L417.309 277.385M444.698 322.723L491.092 365.822L524.182 370.3M444.698 322.723H435.755C433.971 329.918 429.187 333.348 417.309 338.836M351.351 412.839V392.129L364.208 379.987M351.351 412.839L400.54 459.786M417.309 338.836L409.483 345.672H400.54C395.108 351.967 393.542 356.022 384.33 360.982M417.309 338.836L451.406 371.224M400.54 459.786C407.113 435.978 410.947 423.006 422.899 412.839M422.899 412.839L437.991 415.078L433.519 396.047L451.406 371.224M422.899 412.839C405.41 392.434 396.929 381.249 384.33 360.982M384.33 360.982C382.094 371.535 374.062 373.677 364.208 379.987M364.208 379.987C332.657 357.077 316.531 344.628 309.988 328.08M266.389 286.341C276.443 269.272 278.665 258.487 274.215 235.965L293.499 252M266.389 286.341L309.988 328.08M417.309 277.385L384.33 306.491L379.3 301.453L372.592 308.73L359.736 298.095M417.309 277.385C391.697 250.192 379.936 235.018 369.797 208.539M359.736 298.095L342.408 281.303L312.783 268.035L293.499 252M359.736 298.095L327.875 322.723L318.373 319.924L309.988 328.08M293.499 252L340.318 225.331M369.797 208.539L340.318 225.331" stroke="#0972CE" stroke-width="2"/>
</svg>
