<svg width="558" height="794" viewBox="0 0 558 794" fill="none" xmlns="http://www.w3.org/2000/svg">
<path d="M402.951 104.906L394.163 100.473L389.769 117.888L387.886 119.471L383.806 115.196L381.766 116.305L375.175 108.389L372.036 111.872H366.858L363.091 117.888L369.525 128.653V130.078L364.19 133.086L363.562 136.094L358.07 139.419L360.423 143.377V148.918L366.858 152.242L367.485 155.884L376.901 164.275V167.283H379.726L383.649 171.557H386.474L391.809 166.491L396.203 164.275L399.655 169.657V171.557L402.323 174.09L405.148 169.657H408.914L410.954 177.573L423.665 168.232L426.176 171.557L425.235 173.14L427.118 175.04V177.573L439.672 166.491L438.887 164.275L449.559 154.459C444.927 151.032 441.857 149.977 435.749 149.234C430.923 144.237 427.845 141.712 421.625 137.836L421.627 137.832C422.092 136.874 422.354 136.333 410.483 121.846C405.031 117.349 401.843 115.392 395.732 113.772H402.951C403.716 109.842 403.474 108.05 402.951 104.906Z" fill="#0972CE"/>
<path d="M394.163 100.473C382.91 94.2388 378.395 91.8213 370.31 87.491C363.72 81.4515 357.327 76.2071 346.928 67.5431C346.402 60.9771 343.741 58.4387 337.669 54.5611L343.632 47.7535C339.623 48.4278 337.204 48.6393 331.549 47.7535L326.527 38.7295C322.871 39.5287 320.613 40.8528 316.484 43.6373C309.857 37.3391 306.632 35.2649 301.262 32.7134L298.28 25.7475L288.707 22.4228L264.697 2C256.218 9.13434 251.961 21.072 244.14 38.7295C228.335 31.1962 219.452 26.9297 209.459 29.5471V36.513L142.137 113.93L2 118.996L21.3021 757.329C46.0299 758.299 56.7907 765.182 68.8513 792L104.945 773.319C106.876 762.216 109.093 756.987 115.773 749.888C91.5223 728.441 81.9219 716.887 103.219 700.81C102.387 678.75 101.307 662.956 106.671 675.479C111.513 671.747 114.034 670.352 117.656 671.046C118.316 650.434 120.232 639.148 126.13 619.593C119.834 612.714 115.132 610.282 105.572 607.403C97.128 597.064 98.9151 591.277 104.16 580.964L91.292 559.908C96.6007 557.169 101.273 558.529 111.222 563.707C121.087 578.108 135.25 581.224 167.873 582.547L197.218 580.964C215.31 581.043 225.258 579.661 242.728 575.265C275.96 569.826 300.61 567.068 314.601 560.699L339.081 554.683C357.611 551.23 367.871 547.462 386.16 540.593L426.019 528.719L464.467 507.505C480.089 497.151 488.346 491.285 482.043 478.216L486.907 469.351C488.852 462.166 491.142 459.944 495.695 456.685C501.444 448.767 505.508 444.44 514.056 437.054C526.803 416.683 534.004 405.486 547.325 387.501L556.583 372.461C556.864 344.913 558.818 326.68 550.934 311.826L549.679 316.417C548.334 314.387 541.704 314.447 530.063 314.517C522.544 310.476 519.831 307.756 516.41 302.485C507.151 293.058 504.215 287.745 501.188 278.263C500.681 266.129 501.268 260.06 503.699 250.399L523.001 225.068C523.559 220.224 522.452 217.87 517.665 214.461C517.815 208.361 516.482 206.329 511.545 203.695L503.699 191.505C498.036 187.614 495.325 185.281 491.929 180.581C485.164 176.817 481.793 174.245 476.393 169.024L461.171 158.733L458.19 160.95C454.945 157.591 453.049 156.201 449.559 154.459M394.163 100.473L402.951 104.906C403.474 108.05 403.716 109.842 402.951 113.772H395.732C401.843 115.392 405.031 117.349 410.483 121.846C422.354 136.333 422.092 136.874 421.627 137.832L421.625 137.836C427.845 141.712 430.923 144.237 435.749 149.234C441.857 149.977 444.927 151.032 449.559 154.459M394.163 100.473L389.769 117.888L387.886 119.471L383.806 115.196L381.766 116.305L375.175 108.389L372.036 111.872H366.858L363.091 117.888L369.525 128.653V130.078L364.19 133.086L363.562 136.094L358.07 139.419L360.423 143.377V148.918L366.858 152.242L367.485 155.884L376.901 164.275V167.283H379.726L383.649 171.557H386.474L391.809 166.491L396.203 164.275L399.655 169.657V171.557L402.323 174.09L405.148 169.657H408.914L410.954 177.573L423.665 168.232L426.176 171.557L425.235 173.14L427.118 175.04V177.573L439.672 166.491L438.887 164.275L449.559 154.459" stroke="#0972CE" stroke-width="2"/>
</svg>
